<svg width="335" height="167" viewBox="0 0 335 167" fill="none" xmlns="http://www.w3.org/2000/svg">
<g style="mix-blend-mode:hard-light" filter="url(#filter0_d)">
<path d="M3.99999 159V0H63.0415V159H3.99999ZM57.3829 103.42C57.3829 96.4788 56.1017 91.2726 53.5393 87.8018C51.0481 84.2372 48.0231 81.7513 44.4642 80.3442C40.9766 78.8434 37.6668 77.6239 34.535 76.6859C30.6203 75.4664 27.0614 73.8717 23.8584 71.9018C20.6555 69.9319 19.054 66.0858 19.054 60.3637C19.054 55.4858 20.3708 51.7805 23.0043 49.2478C25.709 46.6212 29.2323 45.308 33.5741 45.308C35.6383 45.308 37.8092 45.5894 40.0868 46.1522C42.3645 46.6212 44.6066 47.6062 46.8131 49.1071L47.8807 62.7558L54.2867 61.9115L53.6461 43.7602C51.4396 41.5089 48.379 39.6796 44.4642 38.2726C40.5495 36.8655 36.6703 36.1619 32.8268 36.1619C26.8479 36.1619 21.6519 38.2257 17.239 42.3531C12.8971 46.4805 10.7262 52.8593 10.7262 61.4894C10.7262 67.4929 11.7939 72.0894 13.9292 75.2788C16.0645 78.3743 18.7337 80.6726 21.9366 82.1735C25.1396 83.5805 28.3782 84.7531 31.6523 85.6911C35.923 87.0044 39.8733 88.7398 43.5033 90.8973C47.1334 92.9611 48.9484 97.4637 48.9484 104.405C48.9484 110.596 47.2757 115.005 43.9304 117.632C40.6563 120.165 36.7415 121.431 32.1862 121.431C29.6238 121.431 27.1682 121.15 24.8193 120.587C22.4705 120.024 20.1216 118.945 17.7728 117.35L18.1998 105.812L11.7939 104.968L10.2992 122.979C15.4951 127.95 22.9331 130.436 32.6132 130.436C39.6598 130.436 45.5319 128.138 50.2296 123.542C54.9985 118.945 57.3829 112.238 57.3829 103.42Z" fill="#191111"/>
<path d="M77.3798 159V0H156.173V159H77.3798ZM144.322 46.5743H151.048V37.569H127.026V46.5743H136.955V91.4602C136.955 111.253 130.3 121.15 116.99 121.15C110.299 121.15 105.352 118.664 102.15 113.692C98.9465 108.72 97.345 101.732 97.345 92.7266V46.5743H106.954V37.569H82.291V46.5743H89.4443V93.008C89.4443 102.858 91.3661 111.581 95.2097 119.18C99.1244 126.684 106.242 130.436 116.563 130.436C123.681 130.436 129.232 128.56 133.218 124.808C137.275 120.962 140.123 116.084 141.76 110.174C143.468 104.171 144.322 97.9327 144.322 91.4602V46.5743Z" fill="#191111"/>
<path d="M169.398 159V0H250.219V159H169.398ZM236.874 46.5743H245.522V37.569H218.937V46.5743H229.4V108.064H228.973L189.47 37.569H174.523V46.5743H183.704V120.024H175.697V129.029H202.175V120.024H191.178V56.9867H191.605L231.856 129.029H236.874V46.5743Z" fill="#191111"/>
<path d="M261.045 0H330.016V120.024H321.582L298.84 37.569H278.982V46.5743H290.086L269.48 120.024H261.045V0ZM296.065 52.4841L307.382 94.4151H284L295.531 52.4841H296.065ZM330.016 159H261.045V129.029H285.388V120.024H276.847L281.758 102.435H309.517L314.215 120.024H305.994V129.029H330.016V159Z" fill="#191111"/>
</g>
<defs>
<filter id="filter0_d" x="0" y="0" width="334.016" height="167" filterUnits="userSpaceOnUse" color-interpolation-filters="sRGB">
<feFlood flood-opacity="0" result="BackgroundImageFix"/>
<feColorMatrix in="SourceAlpha" type="matrix" values="0 0 0 0 0 0 0 0 0 0 0 0 0 0 0 0 0 0 127 0"/>
<feOffset dy="4"/>
<feGaussianBlur stdDeviation="2"/>
<feColorMatrix type="matrix" values="0 0 0 0 0 0 0 0 0 0 0 0 0 0 0 0 0 0 0.25 0"/>
<feBlend mode="normal" in2="BackgroundImageFix" result="effect1_dropShadow"/>
<feBlend mode="normal" in="SourceGraphic" in2="effect1_dropShadow" result="shape"/>
</filter>
</defs>
</svg>
